<?xml version="1.0" encoding="UTF-8"?>
<svg xmlns="http://www.w3.org/2000/svg" width="64" height="64" viewBox="0 0 64 64" role="img" aria-labelledby="title desc">
  <title id="title">SavePoint — favicon</title>
  <desc id="desc">La ranura de guardado con el marcador de checkpoint, sobre una baldosa de tema oscuro. Geometría trazada a mano; sin fuentes ni recursos externos.</desc>
  <path d="M12 0 H52 Q64 0 64 12 V52 Q64 64 52 64 H12 Q0 64 0 52 V12 Q0 0 12 0 Z" fill="#232532" fill-rule="evenodd"/>
  <g transform="translate(8 8)">
    <path d="M6 12a6 6 0 0 1 6-6h20l10 10v20a6 6 0 0 1-6 6H12a6 6 0 0 1-6-6V12Z" fill="none" stroke="#e9e9ed" stroke-width="3"/>
    <path d="M24 15l8 9-8 9-8-9 8-9Z" fill="#9184d9"/>
  </g>
</svg>
